<?xml version="1.0" encoding="utf-8"?>
<!-- Generator: Adobe Illustrator 25.2.3, SVG Export Plug-In . SVG Version: 6.00 Build 0)  -->
<svg version="1.1" id="Layer_1" xmlns="http://www.w3.org/2000/svg" xmlns:xlink="http://www.w3.org/1999/xlink" x="0px" y="0px"
	 viewBox="0 0 792 612" style="enable-background:new 0 0 792 612;" xml:space="preserve">
<style type="text/css">
	.st0{fill:#A97C50;}
	.st1{fill:#84613D;}
	.st2{fill:#9E744A;}
	.st3{fill:#682A7B;}
	.st4{display:none;}
	.st5{display:inline;fill:#BA8758;}
	.st6{fill:#9D4E97;}
	.st7{fill:#8DC63F;}
</style>
<g id="Layer_1_1_">
	<polygon class="st0" points="657.9,457 657.9,155 396.5,4.1 135,155 135,457 396.5,607.9 	"/>
	<polyline class="st0" points="526.2,381.5 395.5,306 657,155 526.2,381.5 	"/>
</g>
<g id="Layer_5">
	<polyline class="st1" points="396.5,606.5 396.5,306 135,155 135,457 396.5,607.9 	"/>
</g>
<g id="Layer_6">
	<polyline class="st2" points="526.2,381.5 395.5,306 657,155 526.2,381.5 	"/>
</g>
<g id="Layer_3">
	<polygon class="st3" points="396.5,607.9 657.9,155 657.9,457 	"/>
</g>
<g id="Layer_4" class="st4">
	<polygon class="st5" points="476.7,387 431.2,360.7 476.7,281.9 	"/>
</g>
<g id="Layer_7">
	<path class="st6" d="M657.9,457l-130.7-75.5c2.1-3.6,20.8-36,43.6-75.5c33.7-58.3,76.2-132,87.1-151
		C657.9,255.7,657.9,356.3,657.9,457z"/>
</g>
<g id="Layer_2_1_">
	<polygon class="st7" points="657,155 395.5,4.1 134.1,155 395.5,306 	"/>
	<polygon class="st7" points="134.1,155.4 657,155.4 395.5,4.5 	"/>
</g>
</svg>
